<svg width="24" height="24" viewBox="0 0 24 24" fill="none" xmlns="http://www.w3.org/2000/svg">
<g clip-path="url(#clip0_306_869)">
<path d="M12 0C5.38257 0 0 5.38257 0 12C0 15.0079 1.1082 17.8892 3.16624 20.1056C5.4776 22.6068 8.61214 24 12 24C15.3879 24 18.5224 22.6068 20.8338 20.1056C22.8602 17.8892 24 15.0079 24 12C24 5.38257 18.6174 0 12 0Z" fill="#D4E0EF"/>
<path d="M19.4406 18.839C19.6939 18.5857 19.9155 18.3008 20.1372 17.9842C18.0791 15.7361 15.5461 14.4063 12.8549 14.153C15.1662 13.7414 16.9393 11.715 16.9393 9.24536C16.9393 6.49075 14.723 4.27441 12 4.27441C9.277 4.27441 7.06066 6.49075 7.06066 9.24536C7.06066 11.6834 8.83374 13.7414 11.1451 14.153C8.42212 14.3747 5.92083 15.7045 3.86279 17.9842C4.08442 18.2691 4.30605 18.5541 4.55937 18.839C6.52244 20.9288 9.1504 22.1002 12 22.1002C14.8496 22.1002 17.4775 20.9288 19.4406 18.839Z" fill="#003F91"/>
</g>
<defs>
<clipPath id="clip0_306_869">
<rect width="24" height="24" fill="white"/>
</clipPath>
</defs>
</svg>
